{
    "asset" : {
        "generator" : "Khronos glTF Blender I/O v1.1.46",
        "version" : "2.0"
    },
    "scene" : 0,
    "scenes" : [
        {
            "name" : "Scene",
            "nodes" : [
                0
            ]
        }
    ],
    "nodes" : [
        {
            "mesh" : 0,
            "name" : "\u5e73\u9762",
            "rotation" : [
                -0.02287636697292328,
                -0.02287636697292328,
                -0.7067366242408752,
                0.70673668384552
            ],
            "scale" : [
                0.12243872880935669,
                0.12243872880935669,
                0.12243872880935669
            ],
            "translation" : [
                0,
                0.023605166003108025,
                0
            ]
        }
    ],
    "materials" : [
        {
            "doubleSided" : true,
            "emissiveFactor" : [
                0,
                0,
                0
            ],
            "name" : "hiti",
            "pbrMetallicRoughness" : {
                "baseColorFactor" : [
                    0.0323931984603405,
                    0.0323931984603405,
                    0.0323931984603405,
                    1
                ],
                "metallicFactor" : 0.32107025384902954,
                "roughnessFactor" : 0
            }
        },
        {
            "doubleSided" : true,
            "emissiveFactor" : [
                0,
                0,
                0
            ],
            "name" : "renz",
            "pbrMetallicRoughness" : {
                "baseColorFactor" : [
                    0.036748893558979034,
                    0.036748893558979034,
                    0.036748893558979034,
                    1
                ],
                "metallicFactor" : 0,
                "roughnessFactor" : 0.887959897518158
            }
        }
    ],
    "meshes" : [
        {
            "name" : "\u5e73\u9762",
            "primitives" : [
                {
                    "attributes" : {
                        "POSITION" : 0,
                        "NORMAL" : 1,
                        "JOINTS_0" : 2,
                        "WEIGHTS_0" : 3
                    },
                    "indices" : 4,
                    "material" : 0
                },
                {
                    "attributes" : {
                        "POSITION" : 5,
                        "NORMAL" : 6,
                        "JOINTS_0" : 7,
                        "WEIGHTS_0" : 8
                    },
                    "indices" : 9,
                    "material" : 1
                }
            ]
        }
    ],
    "accessors" : [
        {
            "bufferView" : 0,
            "componentType" : 5126,
            "count" : 7072,
            "max" : [
                4.333146095275879,
                5.063662528991699,
                -1
            ],
            "min" : [
                0.9716969132423401,
                -5.063662528991699,
                -9.49186897277832
            ],
            "type" : "VEC3"
        },
        {
            "bufferView" : 1,
            "componentType" : 5126,
            "count" : 7072,
            "type" : "VEC3"
        },
        {
            "bufferView" : 2,
            "componentType" : 5123,
            "count" : 7072,
            "type" : "VEC4"
        },
        {
            "bufferView" : 3,
            "componentType" : 5126,
            "count" : 7072,
            "type" : "VEC4"
        },
        {
            "bufferView" : 4,
            "componentType" : 5123,
            "count" : 42432,
            "type" : "SCALAR"
        },
        {
            "bufferView" : 5,
            "componentType" : 5126,
            "count" : 15624,
            "max" : [
                4.260098457336426,
                4.631038188934326,
                -0.9549344778060913
            ],
            "min" : [
                1.0424400568008423,
                -4.631038188934326,
                -1.3647680282592773
            ],
            "type" : "VEC3"
        },
        {
            "bufferView" : 6,
            "componentType" : 5126,
            "count" : 15624,
            "type" : "VEC3"
        },
        {
            "bufferView" : 7,
            "componentType" : 5123,
            "count" : 15624,
            "type" : "VEC4"
        },
        {
            "bufferView" : 8,
            "componentType" : 5126,
            "count" : 15624,
            "type" : "VEC4"
        },
        {
            "bufferView" : 9,
            "componentType" : 5123,
            "count" : 61140,
            "type" : "SCALAR"
        }
    ],
    "bufferViews" : [
        {
            "buffer" : 0,
            "byteLength" : 84864,
            "byteOffset" : 0
        },
        {
            "buffer" : 0,
            "byteLength" : 84864,
            "byteOffset" : 84864
        },
        {
            "buffer" : 0,
            "byteLength" : 56576,
            "byteOffset" : 169728
        },
        {
            "buffer" : 0,
            "byteLength" : 113152,
            "byteOffset" : 226304
        },
        {
            "buffer" : 0,
            "byteLength" : 84864,
            "byteOffset" : 339456
        },
        {
            "buffer" : 0,
            "byteLength" : 187488,
            "byteOffset" : 424320
        },
        {
            "buffer" : 0,
            "byteLength" : 187488,
            "byteOffset" : 611808
        },
        {
            "buffer" : 0,
            "byteLength" : 124992,
            "byteOffset" : 799296
        },
        {
            "buffer" : 0,
            "byteLength" : 249984,
            "byteOffset" : 924288
        },
        {
            "buffer" : 0,
            "byteLength" : 122280,
            "byteOffset" : 1174272
        }
    ],
    "buffers" : [
        {
            "byteLength" : 1296552,
            "uri" : "data:application/octet-stream;base64,"
        }
    ]
}
